# xmcd
#
# Track frame offsets:
#	150
#	23480
#	46380
#	65290
#	87225
#	109015
#	128148
#	149463
#	171273
#	193685
#
# Disc length: 2853 seconds
#
# Revision: 1
# Processed by: cddbd v1.5PL3 Copyright (c) Steve Scherf et al.
# Submitted via: CDex 1.50Beta5
#
DISCID=840b230a
DTITLE=Vastine Petis - Inspector Pepper
DYEAR=1900
DGENRE=Pop
TTITLE0=Wanted
TTITLE1=Carmen
TTITLE2=Inspector Pepper
TTITLE3=Surfer Pirates
TTITLE4=UFO
TTITLE5=Monster
TTITLE6=Sindbad On The Beach
TTITLE7=Chameleon Army
TTITLE8=Monday Mona Lisa Club
TTITLE9=Jipang
EXTD=
EXTT0=
EXTT1=
EXTT2=
EXTT3=
EXTT4=
EXTT5=
EXTT6=
EXTT7=
EXTT8=
EXTT9=
PLAYORDER=
